<svg xmlns="http://www.w3.org/2000/svg" viewBox="0 0 500 500"><defs><style>.cls-1{fill:#d50c21;}</style></defs><g id="Capa_2" data-name="Capa 2"><path class="cls-1" d="M489.43,267V459.3H321.89V300.75c-3.3-41.79-22.72-43.16-25.27-43.16H203.38v-157H326.93c2.94-.16,5.92-.26,8.9-.26A153.61,153.61,0,0,1,489.43,254Z"/><path class="cls-1" d="M300.38,322V457.15a4.38,4.38,0,0,1-4.38,4.37H146.61v.13C72.34,455.34,10.73,389.74,10.73,313.84c0-4.29-.36-8.54,0-12.73h0V42.72a4.37,4.37,0,0,1,4.37-4.37H182.46a4.37,4.37,0,0,1,4.37,4.37V297.31a13.91,13.91,0,0,0,2.44,7.95A33.75,33.75,0,0,0,201.47,316a15.63,15.63,0,0,0,7.11,1.65H296A4.38,4.38,0,0,1,300.38,322Z"/></g></svg>